<?xml version="1.0" encoding="utf-8"?>
<!-- Generator: Adobe Illustrator 24.3.0, SVG Export Plug-In . SVG Version: 6.00 Build 0)  -->
<svg version="1.1" id="Layer_1" xmlns="http://www.w3.org/2000/svg" xmlns:xlink="http://www.w3.org/1999/xlink" x="0px" y="0px"
	 viewBox="0 0 24 24" style="enable-background:new 0 0 24 24;" xml:space="preserve">
<style type="text/css">
	.st0{fill:#2C823F;}
</style>
<path class="st0" d="M9,1.4C8.9,0.8,9.3,0.3,9.8,0.2C10.5,0.1,11.3,0,12,0c0.6,0,1,0.4,1,1s-0.4,1-1,1c-0.6,0-1.4,0.1-2,0.2
	C9.5,2.2,9.1,1.8,9,1.4z M8,15.8c-0.1,0.6,0.3,1.2,0.5,1.4C8.9,17.7,9.4,18,9.9,18h4.1c0.8,0,1.3-0.3,1.5-0.6c0.3-0.4,0.5-1,0.4-1.5
	c-0.3-1.4-1.1-2.6-2.4-3.8c1.3-1.2,2.2-2.4,2.4-3.8c0.1-0.6,0-1.1-0.4-1.5C15.4,6.4,14.9,6,14.1,6H9.9c-0.5,0-1,0.3-1.4,0.8
	C8.3,7,7.9,7.6,8,8.2c0.3,1.4,1.1,2.6,2.4,3.8C9.1,13.2,8.3,14.5,8,15.8z M10,2.2C9.9,2.2,10.1,2.2,10,2.2L10,2.2z M4.7,4.8
	c0.2,0,0.5-0.1,0.7-0.3c0.5-0.4,0.9-0.8,1.5-1.1c0.5-0.3,0.6-0.9,0.3-1.4C6.9,1.6,6.2,1.5,5.8,1.7C5.2,2.1,4.6,2.6,4,3
	C3.6,3.4,3.6,4,3.9,4.4C4.1,4.7,4.4,4.8,4.7,4.8L4.7,4.8z M23,4c0.6,0,1-0.4,1-1s-0.4-1-1-1h-4c-1.1,0-2,0.9-2,2v4c0,0.6,0.4,1,1,1
	s1-0.4,1-1V4.9c3.2,3.2,4.2,8.4,1.3,12.7c-1.3,1.9-3.2,3.4-5.5,4c-4.4,1.2-8.8-0.5-11.2-4.2c-0.3-0.5-0.9-0.6-1.4-0.3
	c-0.5,0.3-0.6,0.9-0.3,1.4c2.6,4.1,7.5,6.2,12.4,5.2c3.6-0.7,6.7-3.1,8.3-6.3c2.4-4.7,1.4-10-1.7-13.5C20.9,4,23,4,23,4z M2.3,14.4
	c-0.1-0.6-0.2-1.2-0.3-1.8c0-0.6-0.5-1-1.1-0.9c-0.6,0-1,0.5-0.9,1.1c0,0.7,0.2,1.4,0.3,2.2c0.1,0.5,0.5,0.8,1,0.8
	c0.1,0,0.2,0,0.2,0C2.1,15.5,2.4,15,2.3,14.4L2.3,14.4z M1.2,9.7c0.1,0,0.2,0,0.3,0c0.4,0,0.8-0.3,1-0.7c0.2-0.6,0.4-1.1,0.7-1.7
	C3.4,6.9,3.2,6.3,2.7,6C2.2,5.8,1.6,6,1.4,6.5C1,7.1,0.7,7.8,0.5,8.5C0.4,9,0.7,9.6,1.2,9.7L1.2,9.7z"/>
</svg>
