<?xml version="1.0" encoding="utf-8"?>
<!-- Generator: Adobe Illustrator 24.3.0, SVG Export Plug-In . SVG Version: 6.00 Build 0)  -->
<svg version="1.1" id="Outline" xmlns="http://www.w3.org/2000/svg" xmlns:xlink="http://www.w3.org/1999/xlink" x="0px" y="0px"
	 viewBox="0 0 512 512" style="enable-background:new 0 0 512 512;" xml:space="preserve">
<style type="text/css">
	.st0{fill:#FFFFFF;}
</style>
<path class="st0" d="M490.7,234.7H277.3V21.3C277.3,9.6,267.8,0,256,0l0,0c-11.8,0-21.3,9.6-21.3,21.3v213.3H21.3
	C9.6,234.7,0,244.2,0,256l0,0c0,11.8,9.6,21.3,21.3,21.3h213.3v213.3c0,11.8,9.6,21.3,21.3,21.3l0,0c11.8,0,21.3-9.6,21.3-21.3
	V277.3h213.3c11.8,0,21.3-9.6,21.3-21.3l0,0C512,244.2,502.4,234.7,490.7,234.7z"/>
</svg>
