<?xml version="1.0" encoding="utf-8"?>
<!-- Generator: Adobe Illustrator 24.3.0, SVG Export Plug-In . SVG Version: 6.00 Build 0)  -->
<svg version="1.1" id="Capa_1" xmlns="http://www.w3.org/2000/svg" xmlns:xlink="http://www.w3.org/1999/xlink" x="0px" y="0px"
	 viewBox="0 0 512 512" style="enable-background:new 0 0 512 512;" xml:space="preserve">
<style type="text/css">
	.st0{fill:#FFFFFF;}
</style>
<g>
	<path class="st0" d="M21.4,101.3h58.4c11.5,42.4,55.2,67.4,97.6,55.9c27.2-7.4,48.5-28.7,55.9-55.9h257.4
		c11.8,0,21.3-9.6,21.3-21.3s-9.6-21.3-21.3-21.3H233.2C221.7,16.3,178-8.7,135.6,2.8c-27.2,7.4-48.5,28.7-55.9,55.9H21.4
		C9.6,58.7,0,68.2,0,80S9.6,101.3,21.4,101.3z"/>
	<path class="st0" d="M490.6,234.7h-58.4c-11.5-42.4-55.2-67.4-97.5-55.9c-27.2,7.4-48.5,28.7-55.9,55.9H21.4
		C9.6,234.7,0,244.2,0,256s9.6,21.3,21.3,21.3h257.5c11.5,42.4,55.2,67.4,97.5,55.9c27.2-7.4,48.5-28.7,55.9-55.9h58.4
		c11.8,0,21.3-9.6,21.3-21.3C512,244.2,502.4,234.7,490.6,234.7z"/>
	<path class="st0" d="M490.6,410.7H233.2c-11.5-42.4-55.2-67.4-97.6-55.9c-27.2,7.4-48.5,28.7-55.9,55.9H21.4
		C9.6,410.7,0,420.2,0,432c0,11.8,9.6,21.3,21.3,21.3h58.4c11.5,42.4,55.2,67.4,97.6,55.9c27.2-7.4,48.5-28.7,55.9-55.9h257.4
		c11.8,0,21.3-9.6,21.3-21.3C512,420.2,502.4,410.7,490.6,410.7z"/>
</g>
</svg>
